# Blender v2.69 (sub 0) OBJ File: 'room9.blend'
# www.blender.org
mtllib room_F_B_B.mtl
v 716.241455 0.164230 716.177551
v -714.394531 0.164230 716.177551
v 716.241455 498.196411 716.177917
v -714.394531 498.196411 716.177917
vn 0.000000 -0.000001 1.000000
usemtl graph
s off
f 2//1 1//1 3//1 4//1
v 716.241455 0.164230 -714.899353
v -714.394531 0.164230 -714.899353
v 716.241455 498.196411 -714.898987
v -714.394531 498.196411 -714.898987
vn 0.000000 -0.000001 1.000000
usemtl graph
s off
f 6//2 5//2 7//2 8//2
